<?xml version="1.0" standalone="no"?>
<!DOCTYPE svg PUBLIC "-//W3C//DTD SVG 20010904//EN"
 "http://www.w3.org/TR/2001/REC-SVG-20010904/DTD/svg10.dtd">
<svg version="1.0" xmlns="http://www.w3.org/2000/svg"
 width="435.000000pt" height="399.000000pt" viewBox="0 0 435.000000 399.000000"
 preserveAspectRatio="xMidYMid meet">

<g transform="translate(0.000000,399.000000) scale(0.100000,-0.100000)"
fill="#000000" stroke="none">
<path d="M2003 3670 c-320 -26 -636 -154 -888 -360 -199 -163 -383 -416 -475
-652 -36 -93 -37 -98 -6 -98 21 0 27 8 41 53 24 72 114 251 165 328 187 278
466 494 779 603 189 66 280 80 511 80 231 0 322 -14 511 -80 313 -109 592
-325 779 -603 51 -77 141 -256 165 -328 14 -45 20 -53 41 -53 30 0 30 4 0 82
-100 267 -305 539 -536 711 -228 172 -531 291 -790 312 -150 12 -197 13 -297
5z"/>
<path d="M807 2379 c-12 -7 -15 -15 -8 -27 7 -13 -18 -86 -98 -282 -104 -256
-108 -264 -139 -272 -18 -5 -32 -15 -32 -23 0 -12 17 -15 85 -15 70 0 85 3 85
15 0 9 -12 18 -30 22 -16 3 -30 8 -29 12 0 3 15 40 33 81 l32 75 124 0 124 0
32 -80 32 -80 -29 -8 c-16 -4 -29 -14 -29 -22 0 -12 19 -15 100 -15 79 0 100
3 100 14 0 15 -21 26 -49 26 -14 0 -45 66 -137 292 -75 185 -125 294 -134 295
-8 2 -23 -2 -33 -8z m77 -234 c27 -69 47 -127 44 -130 -3 -3 -50 -4 -105 -3
l-99 3 49 128 c28 70 53 127 56 127 3 0 28 -56 55 -125z"/>
<path d="M2358 2239 c-10 -10 -18 -32 -18 -49 0 -23 -5 -31 -25 -36 -32 -8
-33 -34 -1 -34 l25 0 3 -155 c3 -152 3 -155 30 -181 36 -36 91 -36 143 -1 30
20 35 28 23 32 -9 4 -25 2 -37 -4 -30 -16 -59 -13 -81 9 -18 18 -20 33 -20
160 l0 140 65 0 c58 0 65 2 65 20 0 18 -7 20 -65 20 l-65 0 0 50 c0 54 -12 63
-42 29z"/>
<path d="M3542 2237 c-12 -13 -22 -35 -22 -50 0 -20 -6 -28 -25 -33 -32 -8
-33 -34 -1 -34 l25 0 3 -155 c3 -152 3 -155 30 -181 36 -36 91 -36 143 -1 30
20 35 28 23 32 -9 4 -25 2 -37 -4 -30 -16 -59 -13 -81 9 -18 18 -20 33 -20
160 l0 140 65 0 c58 0 65 2 65 20 0 18 -7 20 -65 20 l-65 0 0 50 c0 56 -7 61
-38 27z"/>
<path d="M1285 2160 c-85 -26 -112 -118 -51 -171 13 -11 56 -37 97 -57 71 -35
74 -39 77 -75 3 -35 1 -39 -32 -52 -19 -8 -46 -15 -58 -15 -35 0 -87 36 -94
65 -8 31 -24 33 -24 3 0 -13 -3 -32 -6 -44 -5 -18 2 -24 37 -38 93 -37 204
-13 234 51 30 63 -12 128 -105 163 -62 23 -100 58 -100 90 0 33 23 50 69 50
44 0 82 -17 88 -40 8 -31 20 -23 25 16 4 31 1 37 -21 45 -38 15 -103 19 -136
9z"/>
<path d="M1625 2155 c-52 -18 -75 -48 -75 -94 0 -52 24 -79 99 -113 78 -35
111 -63 111 -93 0 -79 -171 -84 -186 -5 -9 42 -21 38 -29 -10 -8 -50 -4 -57
47 -71 125 -33 228 10 228 96 0 58 -21 81 -117 127 -85 41 -110 68 -97 103 19
48 129 47 154 -1 19 -34 30 -30 30 11 0 24 -6 37 -20 45 -34 18 -103 21 -145
5z"/>
<path d="M2015 2158 c-53 -19 -83 -47 -109 -100 -91 -182 71 -364 248 -279 49
24 71 45 62 60 -4 6 -21 2 -42 -11 -94 -55 -224 9 -224 110 l0 30 88 6 c48 4
110 10 137 14 50 7 50 7 47 42 -3 42 -28 86 -63 113 -32 23 -102 31 -144 15z
m96 -43 c28 -15 49 -49 49 -80 0 -14 -26 -19 -142 -30 -59 -6 -68 -4 -68 10 0
29 30 76 63 95 39 24 59 25 98 5z"/>
<path d="M2682 2151 c-62 -21 -91 -46 -76 -61 7 -7 21 -5 44 6 45 23 125 30
145 14 11 -9 15 -32 15 -80 l0 -67 -82 -7 c-96 -8 -128 -21 -147 -60 -11 -23
-11 -36 -2 -67 22 -73 93 -91 179 -46 50 26 51 26 57 6 4 -11 16 -24 28 -28
31 -12 101 11 105 33 3 16 -1 18 -26 13 -19 -4 -34 -1 -40 6 -6 7 -12 78 -14
159 -3 135 -5 149 -24 169 -30 30 -96 34 -162 10z m128 -262 c0 -48 -1 -51
-37 -66 -21 -9 -56 -16 -78 -17 -33 -1 -41 3 -52 26 -27 55 10 89 112 101 17
2 36 5 43 6 8 1 12 -15 12 -50z"/>
<path d="M3038 2152 c-50 -14 -64 -38 -25 -44 22 -3 22 -6 25 -154 l3 -152
-26 -6 c-14 -4 -25 -13 -25 -21 0 -12 16 -15 80 -15 64 0 80 3 80 15 0 8 -11
17 -25 21 l-25 6 0 139 0 139 40 20 c22 11 59 20 84 20 36 0 48 -5 65 -26 19
-24 21 -40 21 -160 l0 -132 -30 -7 c-16 -4 -30 -13 -30 -21 0 -11 18 -14 85
-14 68 0 85 3 85 15 0 8 -11 17 -24 21 -24 6 -24 7 -27 153 -3 118 -7 152 -21
173 -34 52 -126 60 -209 18 -48 -25 -47 -25 -51 3 -3 22 -4 23 -50 9z"/>
<path d="M610 1580 c0 -23 63 -170 108 -253 166 -307 402 -535 715 -689 182
-91 370 -141 580 -157 631 -47 1222 280 1529 846 45 83 108 230 108 253 0 5
-11 10 -24 10 -21 0 -27 -8 -41 -52 -23 -72 -116 -255 -167 -331 -185 -277
-464 -492 -777 -601 -189 -66 -280 -80 -511 -80 -231 0 -322 14 -511 80 -314
109 -591 324 -779 603 -51 77 -141 256 -165 329 -14 44 -20 52 -41 52 -13 0
-24 -5 -24 -10z"/>
</g>
</svg>
