<?xml version="1.0" standalone="no"?>
<!DOCTYPE svg PUBLIC "-//W3C//DTD SVG 20010904//EN"
 "http://www.w3.org/TR/2001/REC-SVG-20010904/DTD/svg10.dtd">
<svg version="1.0" xmlns="http://www.w3.org/2000/svg"
 width="592.000000pt" height="596.000000pt" viewBox="0 0 592.000000 596.000000"
 preserveAspectRatio="xMidYMid meet">

<g transform="translate(0.000000,596.000000) scale(0.100000,-0.100000)"
fill="#000000" stroke="none">
<path d="M0 2980 l0 -2980 2960 0 2960 0 0 2980 0 2980 -2960 0 -2960 0 0
-2980z m4900 120 c0 -1270 1 -2313 3 -2317 1 -5 -868 -9 -1930 -11 l-1933 -2
0 2320 0 2320 1930 0 1930 0 0 -2310z"/>
<path d="M1430 3095 l0 -1925 1540 0 1540 0 0 1925 0 1925 -1540 0 -1540 0 0
-1925z m1620 1390 l0 -155 345 0 345 0 0 -197 0 -198 -345 0 -345 0 0 -302 0
-303 345 -2 345 -3 3 -658 2 -657 -347 0 -348 0 0 -155 0 -155 -80 0 -80 0 0
155 0 155 -350 0 -350 0 0 195 0 195 350 0 350 0 0 265 0 265 -350 0 -350 0 0
700 0 700 350 0 350 0 0 155 0 155 80 0 80 0 0 -155z"/>
<path d="M2590 3635 l0 -305 150 0 150 0 0 303 0 302 -150 2 -150 2 0 -304z"/>
<path d="M3050 2665 l0 -265 150 0 150 0 0 265 0 265 -150 0 -150 0 0 -265z"/>
</g>
</svg>
